<svg id="Logo_FIXED" data-name="Logo FIXED" xmlns="http://www.w3.org/2000/svg" viewBox="0 0 400 400"><defs><style>.cls-1{fill:none;}.cls-2{fill:#1da1f2;}</style></defs><title>twitter</title><rect class="cls-1" width="400" height="400"/><path class="cls-2" d="M79.62,227.57c94.34,0,145.94-78.16,145.94-145.94,0-2.22,0-4.43-.15-6.63A104.36,104.36,0,0,0,251,48.45a102.24,102.24,0,0,1-29.46,8.07,51.46,51.46,0,0,0,22.55-28.37A103,103,0,0,1,211.52,40.6a51.34,51.34,0,0,0-87.41,46.78A145.63,145.63,0,0,1,18.4,33.79a51.33,51.33,0,0,0,15.88,68.47A50.84,50.84,0,0,1,11,95.84v.65a51.32,51.32,0,0,0,41.15,50.28,51.2,51.2,0,0,1-23.16.88,51.36,51.36,0,0,0,47.92,35.62,103,103,0,0,1-63.7,22A106,106,0,0,1,1,204.53a145.22,145.22,0,0,0,78.62,23" transform="translate(74 74)"/></svg>